<?xml version="1.0" encoding="UTF-8"?>
<!DOCTYPE svg PUBLIC "-//W3C//DTD SVG 1.1//EN" "http://www.w3.org/Graphics/SVG/1.1/DTD/svg11.dtd">
<svg xmlns="http://www.w3.org/2000/svg" version="1.1" width="167px" height="144px" style="shape-rendering:geometricPrecision; text-rendering:geometricPrecision; image-rendering:optimizeQuality; fill-rule:evenodd; clip-rule:evenodd" xmlns:xlink="http://www.w3.org/1999/xlink">
<g><path style="opacity:1" fill="#4e50ec" d="M 119.5,17.5 C 119.979,21.9113 119.312,26.078 117.5,30C 108.096,32.44 104.096,28.6067 105.5,18.5C 87.1667,18.5 68.8333,18.5 50.5,18.5C 52.1849,25.0118 50.0183,29.3451 44,31.5C 41.5941,31.2971 39.5941,30.2971 38,28.5C 37.5017,25.1832 37.335,21.8499 37.5,18.5C 34.1667,18.5 30.8333,18.5 27.5,18.5C 27.5,17.8333 27.8333,17.5 28.5,17.5C 31.5,17.5 34.5,17.5 37.5,17.5C 37.5,15.5 37.5,13.5 37.5,11.5C 40.3777,9.89456 43.3777,8.56123 46.5,7.5C 48.4109,7.5743 49.5776,8.5743 50,10.5C 50.4966,12.8098 50.6633,15.1432 50.5,17.5C 68.8333,17.5 87.1667,17.5 105.5,17.5C 104.249,11.4375 106.582,7.77081 112.5,6.5C 118.064,7.93563 120.397,11.6023 119.5,17.5 Z"/></g>
<g><path style="opacity:1" fill="#eeeaf6" d="M 37.5,11.5 C 37.5,13.5 37.5,15.5 37.5,17.5C 34.5,17.5 31.5,17.5 28.5,17.5C 31.2911,15.2651 34.2911,13.2651 37.5,11.5 Z"/></g>
<g><path style="opacity:1" fill="#5230d8" d="M 119.5,17.5 C 137.693,14.6939 145.026,22.3606 141.5,40.5C 99.5,40.5 57.5,40.5 15.5,40.5C 15.5,37.1667 15.5,33.8333 15.5,30.5C 18.5,25.5 22.5,21.5 27.5,18.5C 30.8333,18.5 34.1667,18.5 37.5,18.5C 37.335,21.8499 37.5017,25.1832 38,28.5C 39.5941,30.2971 41.5941,31.2971 44,31.5C 50.0183,29.3451 52.1849,25.0118 50.5,18.5C 68.8333,18.5 87.1667,18.5 105.5,18.5C 104.096,28.6067 108.096,32.44 117.5,30C 119.312,26.078 119.979,21.9113 119.5,17.5 Z"/></g>
<g><path style="opacity:1" fill="#fbf8f6" d="M 73.5,-0.5 C 80.1667,-0.5 86.8333,-0.5 93.5,-0.5C 120.862,2.92583 142.362,15.9258 158,38.5C 161.718,44.9196 164.551,51.5863 166.5,58.5C 166.5,67.5 166.5,76.5 166.5,85.5C 164.947,91.153 162.614,96.4864 159.5,101.5C 159.666,93.16 159.5,84.8267 159,76.5C 154.408,70.9553 148.575,67.622 141.5,66.5C 141.5,57.8333 141.5,49.1667 141.5,40.5C 145.026,22.3606 137.693,14.6939 119.5,17.5C 120.397,11.6023 118.064,7.93563 112.5,6.5C 106.582,7.77081 104.249,11.4375 105.5,17.5C 87.1667,17.5 68.8333,17.5 50.5,17.5C 50.6633,15.1432 50.4966,12.8098 50,10.5C 49.5776,8.5743 48.4109,7.5743 46.5,7.5C 55.1047,3.43298 64.1047,0.766312 73.5,-0.5 Z"/></g>
<g><path style="opacity:1" fill="#6844ef" d="M 15.5,30.5 C 15.5,33.8333 15.5,37.1667 15.5,40.5C 57.5,40.5 99.5,40.5 141.5,40.5C 141.5,49.1667 141.5,57.8333 141.5,66.5C 136.5,66.5 131.5,66.5 126.5,66.5C 126.666,61.4889 126.499,56.4889 126,51.5C 125.5,51 125,50.5 124.5,50C 117.167,49.3333 109.833,49.3333 102.5,50C 102,50.5 101.5,51 101,51.5C 100.333,57.5 100.333,63.5 101,69.5C 103.715,70.0691 106.215,71.0691 108.5,72.5C 107.164,74.0103 105.997,75.6769 105,77.5C 104.501,81.8206 104.334,86.1539 104.5,90.5C 101.5,90.5 98.5,90.5 95.5,90.5C 93.8813,87.4521 92.8813,84.1188 92.5,80.5C 92.3893,79.8826 92.056,79.3826 91.5,79C 82.2553,78.183 73.0887,78.3497 64,79.5C 63.3333,85.8333 63.3333,92.1667 64,98.5C 68.4014,99.4667 72.9014,99.8 77.5,99.5C 75.6649,106.323 74.9982,113.323 75.5,120.5C 58.1635,120.667 40.8301,120.5 23.5,120C 21.5952,118.579 19.5952,117.412 17.5,116.5C 16.5987,115.71 15.9321,114.71 15.5,113.5C 14.5257,86.1986 14.1924,58.8653 14.5,31.5C 14.5,30.8333 14.8333,30.5 15.5,30.5 Z"/></g>
<g><path style="opacity:1" fill="#fcf9f7" d="M 31.5,49.5 C 38.8409,49.3337 46.1742,49.5003 53.5,50C 54,50.5 54.5,51 55,51.5C 55.6667,57.5 55.6667,63.5 55,69.5C 46.8922,70.8146 38.7255,70.8146 30.5,69.5C 29.3764,63.5522 29.2097,57.5522 30,51.5C 30.7172,50.9558 31.2172,50.2891 31.5,49.5 Z"/></g>
<g><path style="opacity:1" fill="#fbf7f6" d="M 126.5,66.5 C 119.867,66.7111 113.867,68.7111 108.5,72.5C 106.215,71.0691 103.715,70.0691 101,69.5C 100.333,63.5 100.333,57.5 101,51.5C 101.5,51 102,50.5 102.5,50C 109.833,49.3333 117.167,49.3333 124.5,50C 125,50.5 125.5,51 126,51.5C 126.499,56.4889 126.666,61.4889 126.5,66.5 Z"/></g>
<g><path style="opacity:1" fill="#faf6f7" d="M 64.5,49.5 C 73.5062,49.3336 82.5062,49.5002 91.5,50C 92,50.5 92.5,51 93,51.5C 93.6667,57.5 93.6667,63.5 93,69.5C 83.5777,70.6509 74.0777,70.8176 64.5,70C 63.1842,63.1669 63.1842,56.3336 64.5,49.5 Z"/></g>
<g><path style="opacity:1" fill="#059259" d="M 126.5,66.5 C 131.5,66.5 136.5,66.5 141.5,66.5C 148.575,67.622 154.408,70.9553 159,76.5C 159.5,84.8267 159.666,93.16 159.5,101.5C 157.822,106.197 155.156,110.197 151.5,113.5C 151.649,112.448 151.483,111.448 151,110.5C 144.555,113.651 137.722,114.985 130.5,114.5C 130.5,117.167 130.5,119.833 130.5,122.5C 135.635,122.708 140.635,122.041 145.5,120.5C 141.761,124.568 137.428,127.901 132.5,130.5C 130.473,130.338 128.473,130.505 126.5,131C 116.968,138.027 106.301,140.36 94.5,138C 86.1493,136.919 79.9827,132.752 76,125.5C 75.5065,123.866 75.3398,122.199 75.5,120.5C 74.9982,113.323 75.6649,106.323 77.5,99.5C 81.5592,95.1161 86.5592,92.4494 92.5,91.5C 93.791,91.7373 94.791,91.404 95.5,90.5C 98.5,90.5 101.5,90.5 104.5,90.5C 104.334,86.1539 104.501,81.8206 105,77.5C 105.997,75.6769 107.164,74.0103 108.5,72.5C 113.867,68.7111 119.867,66.7111 126.5,66.5 Z"/></g>
<g><path style="opacity:1" fill="#fdf9f7" d="M 14.5,31.5 C 14.1924,58.8653 14.5257,86.1986 15.5,113.5C 6.92656,103.687 1.59322,92.3533 -0.5,79.5C -0.5,74.5 -0.5,69.5 -0.5,64.5C 1.50733,52.1512 6.50733,41.1512 14.5,31.5 Z"/></g>
<g><path style="opacity:1" fill="#53ef9c" d="M 125.5,73.5 C 131.977,73.2809 138.311,74.1142 144.5,76C 152.152,78.2547 153.152,81.9214 147.5,87C 136.075,91.9502 124.909,91.4502 114,85.5C 111.775,81.837 112.608,79.0036 116.5,77C 119.571,75.7043 122.571,74.5377 125.5,73.5 Z"/></g>
<g><path style="opacity:1" fill="#fbf7f7" d="M 31.5,78.5 C 39.1739,78.3336 46.8406,78.5003 54.5,79C 55.6433,85.4184 55.81,91.9184 55,98.5C 47.2462,99.6474 39.4128,99.8141 31.5,99C 31,98.5 30.5,98 30,97.5C 29.3333,91.8333 29.3333,86.1667 30,80.5C 30.7172,79.9558 31.2172,79.2891 31.5,78.5 Z"/></g>
<g><path style="opacity:1" fill="#faf6f7" d="M 92.5,80.5 C 92.5,84.1667 92.5,87.8333 92.5,91.5C 86.5592,92.4494 81.5592,95.1161 77.5,99.5C 72.9014,99.8 68.4014,99.4667 64,98.5C 63.3333,92.1667 63.3333,85.8333 64,79.5C 73.0887,78.3497 82.2553,78.183 91.5,79C 92.056,79.3826 92.3893,79.8826 92.5,80.5 Z"/></g>
<g><path style="opacity:1" fill="#a195e2" d="M 92.5,80.5 C 92.8813,84.1188 93.8813,87.4521 95.5,90.5C 94.791,91.404 93.791,91.7373 92.5,91.5C 92.5,87.8333 92.5,84.1667 92.5,80.5 Z"/></g>
<g><path style="opacity:1" fill="#54ee9d" d="M 149.5,94.5 C 150.725,95.1522 151.392,96.3189 151.5,98C 151.441,99.4357 151.108,100.769 150.5,102C 144.231,105.221 137.564,106.721 130.5,106.5C 130.747,103.495 129.747,100.995 127.5,99C 135.205,98.6651 142.538,97.1651 149.5,94.5 Z"/></g>
<g><path style="opacity:1" fill="#53ef9d" d="M 93.5,98.5 C 100.906,98.152 108.239,98.652 115.5,100C 123.5,104 123.5,108 115.5,112C 105.49,115.847 95.8229,115.18 86.5,110C 83.8997,107.541 83.8997,105.041 86.5,102.5C 88.7654,100.873 91.0987,99.5392 93.5,98.5 Z"/></g>
<g><path style="opacity:1" fill="#55f09e" d="M 151.5,113.5 C 150.219,116.447 148.219,118.781 145.5,120.5C 140.635,122.041 135.635,122.708 130.5,122.5C 130.5,119.833 130.5,117.167 130.5,114.5C 137.722,114.985 144.555,113.651 151,110.5C 151.483,111.448 151.649,112.448 151.5,113.5 Z"/></g>
<g><path style="opacity:1" fill="#53ee9c" d="M 83.5,117.5 C 95.9538,123.773 108.62,124.106 121.5,118.5C 123.094,124.433 120.761,127.933 114.5,129C 105.212,131.524 96.212,130.858 87.5,127C 84.038,124.761 82.7046,121.594 83.5,117.5 Z"/></g>
<g><path style="opacity:1" fill="#faf7f6" d="M 17.5,116.5 C 19.5952,117.412 21.5952,118.579 23.5,120C 40.8301,120.5 58.1635,120.667 75.5,120.5C 75.3398,122.199 75.5065,123.866 76,125.5C 79.9827,132.752 86.1493,136.919 94.5,138C 106.301,140.36 116.968,138.027 126.5,131C 128.473,130.505 130.473,130.338 132.5,130.5C 122.597,136.799 111.93,141.132 100.5,143.5C 89.1667,143.5 77.8333,143.5 66.5,143.5C 47.4041,139.453 31.0708,130.453 17.5,116.5 Z"/></g>
</svg>
